<?xml version="1.0" encoding="utf-8"?>
<svg version="1.2" baseProfile="tiny" id="svg-arm" xmlns="http://www.w3.org/2000/svg" xmlns:xlink="http://www.w3.org/1999/xlink"
	 x="0px" y="0px" viewBox="-10 -1 50 112" overflow="scroll" xml:space="preserve">
<g>
	<path fill="#F1C27D" d="M17.2,12.7l-2.3,12.7L8.2,62.2L0,107.4l17.7,3.2L25.8,66l7.4-40.5l1.4-7.9C31.2,17.8,17.2,12.7,17.2,12.7z"
		/>
	<path fill="#5B2121" d="M34.6,17.5l0.4-2.3h0L36.2,9c0,0,0.6-7.2-6.6-8.8C28.8,0.1,28.1,0,27.4,0c-5.9,0-8.9,5.5-8.9,5.5l-0.9,4.9
		l-0.4,2.3C17.2,12.7,31.2,17.8,34.6,17.5z M18.8,9.8l0.7-3.9C20,5.1,22.7,1,27.4,1c0.6,0,1.3,0.1,1.9,0.2c6.1,1.3,5.9,7.1,5.9,7.7
		l-1,5.3C30.9,13.9,22.7,11.2,18.8,9.8z"/>
    <animateTransform attributeName="transform" attributeType="auto" type="rotate" values="5 25 -3;-10 25 -3;5 25 -3" calcMode="spline" keyTimes="0;0.5;1" keySplines=".25 0 .75 1;.25 0 .75 1" dur="5s" begin="0s" repeatCount="indefinite" additive="sum" accumulate="none" fill="freeze"/>
</g>
</svg>
