<?xml version="1.0" encoding="utf-8"?>
<!-- Generator: Adobe Illustrator 21.0.2, SVG Export Plug-In . SVG Version: 6.00 Build 0)  -->
<svg version="1.2" baseProfile="tiny" id="scientist"
	 xmlns="http://www.w3.org/2000/svg" xmlns:xlink="http://www.w3.org/1999/xlink" x="0px" y="0px" viewBox="0 0 352.8 503.5"
	 overflow="scroll" xml:space="preserve">
<g>
	<polygon fill="none" points="134.2,200.7 153.1,200.7 153.1,200.7 	"/>
	<polygon fill="none" points="216,193.6 216,193.6 230.3,207.9 230.3,207.9 	"/>
	<path fill="none" d="M164.2,295.1L164.2,295.1L164.2,295.1L164.2,295.1z"/>
	<path fill="none" d="M312.3,238.9c-2.5-5.4-6.9-7.9-13.8-7.9v55.5c1.3-1.4,2.6-2.9,3.9-4.5C313,269.4,317.4,250,312.3,238.9z"/>
	<path fill="#E0E0E0" d="M189.8,241.5c1.6-0.5,3.3-0.7,5.1-0.5l16.9-19.2l-1.9-9.7h11.6l11.9-11.4h-20.2L189.8,241.5z"/>
	
		<ellipse transform="matrix(0.9998 -1.962277e-02 1.962277e-02 0.9998 -4.6133 4.3783)" fill="#FFFFFF" cx="220.8" cy="237.3" rx="1.8" ry="1.8"/>
	<polygon fill="#FFFFFF" points="176.7,264.3 176.7,283.3 179.5,261.1 	"/>
	<polygon fill="#E0E0E0" points="139.3,206.8 149.2,208.8 145.3,216.6 172.7,257.6 154.5,204.9 153.1,200.7 134.2,200.7 	"/>
	<path fill="#7F7F7F" d="M176.7,336.1c-0.3-0.2-0.6-0.5-0.9-0.7c-0.3-0.3-0.6-0.6-0.9-0.9v68.8V426v9.8h1.8v-32.5L176.7,336.1
		L176.7,336.1z"/>
	<path fill="#7F7F7F" d="M175.4,294.1l-0.4-0.5v1.5c0.1,0,0.2,0,0.3,0L175.4,294.1z"/>
	<path fill="#7F7F7F" d="M233.3,200.7l-11.9,11.4h-11.6l1.9,9.7L194.8,241c0.1,0,0.1,0,0.2,0l2,0.2l16.7-18.9l-1.7-8.4h10.1
		l13.8-13.2l0,0H233.3L233.3,200.7z"/>
	<path fill="#7F7F7F" d="M189.8,241.5l23.4-40.8l0,0H212h-0.9l0,0l-24.1,42c0.5-0.3,0.9-0.5,1.4-0.7
		C188.8,241.8,189.3,241.6,189.8,241.5z"/>
	<polygon fill="#7F7F7F" points="146.5,210.1 143.2,216.7 174.9,264.2 174.9,266.3 174.9,283.2 175.8,284.2 176.5,284.9 
		176.7,283.3 176.7,264.3 179.5,261.1 180.1,256.4 180.4,254.2 176,261.8 155,200.7 155,200.7 154,200.7 153.1,200.7 153.1,200.7 
		154.5,204.9 172.7,257.6 145.3,216.6 149.2,208.8 139.3,206.8 134.2,200.7 134.2,200.7 131.7,200.7 131.7,200.7 138.4,208.5 	"/>
	<path d="M224.5,129.2h16.2l-5.7-9.8c-1.5-0.4-2.8-0.8-4.2-1.3L224.5,129.2z"/>
	<path d="M78,481c-2.7,1.2-6.3,2.6-10.4,4.1c-3.5,1.3-7.4,2.6-11.4,4c-25.4,8.6-43.4,6.5-43.4,13.4v1h84.9l0.9-0.3l-1-21.5l-1.2-0.3
		l-0.4-0.2C95.7,481,88.2,476.4,78,481z"/>
	<path d="M352.8,502.5c0-6.9-18-4.8-43.4-13.5c-3.8-1.3-7.5-2.6-10.9-3.8c-4.3-1.5-8.1-2.9-10.9-4.2c-10-4.5-17.4-0.3-18,0.1
		c0,0,0,0-0.1,0l-1.6,0.9l-1,21.5l84.8-0.1l1,0.1L352.8,502.5z"/>
	<path id="hair" fill="#352114" d="M69.7,112.3c3.6-2.1,7.5-4.6,11.5-7.5c70.3-50.5,119-43.3,119-43.3s-12,42.1,30.7,56.5
		c1.3,0.5,2.7,0.9,4.2,1.3c8.9,2.4,20,3.8,33.6,3.5c0,0-97.4-46.9,16.2-61.3c25.2-7.2-9,77.5-1.8,108.2c2.3,9.8,8.3,13.3,15.3,13.6
		c15.1,0.6,35.2-13.6,35.2-13.6s-45.1,0,0-46.9s10.8-153.3-134.3-91.1c0,0-49.6-33.4-118.1-31.6S52.3,54.4,37.9,83.2S0,83.2,0,83.2
		s8.1,53.8,55.7,35.9c1.6,61.1-41.2,48.8-41.2,48.8c28.9,21.6,53.2,0.2,53.2,0.2v-54.6C68.3,113.1,69,112.7,69.7,112.3z"/>
	<polygon points="133.4,115.1 125.3,129.2 141.6,129.2 	"/>
	<circle fill="#7F7F7F" cx="190.2" cy="385.3" r="4.5"/>
	<path d="M176.7,165.4c8.8,0,20.2-1.6,34.8-6.5c0.9-0.3,1.5-1.3,1.1-2.3c-0.3-0.9-1.3-1.5-2.3-1.1c-41.3,13.8-55.7,0.6-55.9,0.4
		c-0.7-0.7-1.8-0.7-2.5,0s-0.7,1.8,0,2.5C152.4,158.8,159.2,165.4,176.7,165.4z"/>
	<path fill="#CCCCCC" d="M88.8,296.4c0.2,0.1,0.3,0.2,0.5,0.3c1.4,0.8,2.9,1.6,4.3,2.4c0.2,0.1,0.4,0.2,0.7,0.4
		c1.4,0.7,2.8,1.4,4.3,2.1c0.2,0.1,0.5,0.2,0.7,0.3c1.4,0.6,2.9,1.3,4.3,1.8c0.2,0.1,0.4,0.2,0.7,0.3c1.5,0.6,2.9,1.1,4.4,1.6
		c0.1,0,0.3,0.1,0.4,0.1c1.6,0.5,3.1,1,4.7,1.5l0,0c1.6,0.5,3.1,0.9,4.7,1.3c0.1,0,0.3,0.1,0.4,0.1c1.5,0.4,3,0.7,4.5,1
		c0.2,0,0.4,0.1,0.6,0.1c1.5,0.3,3,0.6,4.5,0.8c0.2,0,0.4,0.1,0.7,0.1c1.5,0.2,3,0.5,4.5,0.7c0.2,0,0.4,0,0.6,0.1
		c1.5,0.2,3.1,0.4,4.6,0.5c0.1,0,0.2,0,0.2,0c3.3,0.3,6.5,0.6,9.8,0.7c0.1,0,0.2,0,0.3,0c1.6,0.1,3.2,0.2,4.8,0.2c0.1,0,0.2,0,0.4,0
		c1.6,0.1,3.2,0.1,4.8,0.1c0.1,0,0.2,0,0.3,0c1.6,0,3.3,0.1,4.9,0.1v-18l0,0c-4.2,0-8.3-0.1-12.5-0.3c-0.5,0-1,0-1.5-0.1
		c-0.9,0-1.7-0.1-2.6-0.2c-0.7,0-1.4-0.1-2.2-0.1c-0.8-0.1-1.6-0.1-2.4-0.2c-0.8-0.1-1.5-0.1-2.3-0.2s-1.5-0.2-2.3-0.3
		c-0.8-0.1-1.6-0.2-2.4-0.3c-0.8-0.1-1.5-0.2-2.2-0.3c-0.8-0.1-1.6-0.2-2.4-0.4c-0.7-0.1-1.5-0.3-2.2-0.4c-0.8-0.1-1.6-0.3-2.4-0.5
		c-0.7-0.1-1.4-0.3-2.2-0.5c-0.8-0.2-1.6-0.4-2.4-0.6c-0.7-0.2-1.4-0.4-2.1-0.5c-0.8-0.2-1.6-0.5-2.4-0.7c-0.7-0.2-1.4-0.4-2-0.6
		c-0.8-0.3-1.6-0.5-2.4-0.8c-0.7-0.2-1.3-0.5-2-0.7c-0.8-0.3-1.7-0.7-2.5-1c-0.6-0.3-1.3-0.5-1.9-0.8c-0.9-0.4-1.7-0.8-2.6-1.2
		c-0.6-0.3-1.2-0.5-1.7-0.8c-0.9-0.5-1.9-1-2.8-1.5c-0.5-0.3-1-0.5-1.4-0.8c-1.4-0.8-2.8-1.7-4.2-2.6c-11.7-7.8-20.9-17.8-26.6-26.7
		c0-0.1-0.1-0.1-0.1-0.2c-5.1-7.9-7.5-15-6.5-18.6c0.6-1.9,4.8-2.1,6.6-2.1v-18c-17.4,0-22.5,10.4-23.8,14.9
		c-4.6,15.1,7.3,35.9,23.8,52.1l0,0c5.2,5.1,10.9,9.7,16.6,13.6C85.8,294.6,87.3,295.5,88.8,296.4z M45.5,228.4
		c1.2-3.9,5.5-12.9,20.3-13.5v14.4c-3.7,0.3-5.9,1.4-6.5,3.3c-1.3,4.2,1.2,11.5,6.7,20.1l0.1,0.2c3.9,6,12.6,17.5,27.1,27.2
		c1.4,0.9,2.8,1.8,4.3,2.7c0.3,0.2,0.6,0.3,0.9,0.5c0.2,0.1,0.4,0.2,0.5,0.3l0.1,0.1c0.9,0.5,1.9,1,2.8,1.5c0.4,0.2,0.8,0.4,1.2,0.6
		l0.6,0.3l0.2,0.1c0.8,0.4,1.6,0.8,2.4,1.1c0.5,0.2,1,0.4,1.4,0.6l0.5,0.2c0.8,0.3,1.6,0.7,2.5,1c0.6,0.2,1.2,0.4,1.8,0.6l0.3,0.1
		c0.8,0.3,1.6,0.6,2.5,0.9c0.7,0.2,1.4,0.4,2.1,0.6c0.8,0.2,1.6,0.5,2.5,0.7c0.7,0.2,1.4,0.4,2.1,0.6c0.8,0.2,1.6,0.4,2.4,0.6
		c0.7,0.2,1.5,0.3,2.2,0.5c0.8,0.2,1.6,0.3,2.4,0.5c0.7,0.1,1.5,0.3,2.2,0.4c0.8,0.1,1.6,0.3,2.4,0.4h0.2c0.7,0.1,1.4,0.2,2.1,0.3
		c0.8,0.1,1.6,0.2,2.4,0.3l0.4,0.1c0.6,0.1,1.3,0.1,1.9,0.2c0.6,0.1,1.3,0.1,1.9,0.2h0.4l0.6,0.1c0.6,0.1,1.2,0.1,1.8,0.2
		c0.5,0,1.1,0.1,1.6,0.1h0.6h0.7c0.6,0,1.3,0.1,1.9,0.1c0.3,0,0.6,0,0.9,0h0.6c3.3,0.2,6.9,0.3,10.8,0.3v14.4c-1,0-2,0-3-0.1H159
		c-1.6,0-3.2-0.1-4.7-0.1h-0.2h-0.2c-1.6-0.1-3.2-0.1-4.7-0.2h-0.1H149c-3.4-0.2-6.6-0.4-9.7-0.7h-0.1h-0.1c-1.5-0.1-3-0.3-4.6-0.5
		h-0.2H134c-1.5-0.2-2.9-0.4-4.4-0.7l-0.7-0.1c-1.5-0.2-3-0.5-4.4-0.8l-0.4-0.1h-0.2c-1.6-0.3-3-0.6-4.5-1l-0.2-0.1l-0.2-0.1
		c-1.7-0.4-3.2-0.8-4.6-1.2c-1.5-0.4-3-0.9-4.6-1.4l-0.2-0.1l-0.2-0.1c-1.4-0.5-2.8-1-4.4-1.6l-0.2-0.1l-0.4-0.2
		c-1.4-0.5-2.8-1.2-4.2-1.8l-0.7-0.3c-1.4-0.7-2.8-1.3-4.2-2l-0.4-0.2l-0.3-0.1c-1.5-0.8-2.9-1.6-4.3-2.4l-0.2-0.1l-0.2-0.1
		c-1.6-1-3.1-1.9-4.4-2.8c-5.7-3.8-11.2-8.3-16.4-13.4C50.8,261,41.6,241.3,45.5,228.4z"/>
	<g id="coat-color">
		<path fill="#FFFFFF" d="M94.3,278.6c1.4,0.9,2.8,1.8,4.2,2.6c0.5,0.3,1,0.5,1.4,0.8c0.9,0.5,1.9,1.1,2.8,1.5
			c0.6,0.3,1.2,0.6,1.7,0.8c0.9,0.4,1.7,0.8,2.6,1.2c0.6,0.3,1.3,0.5,1.9,0.8c0.8,0.3,1.6,0.7,2.5,1c0.7,0.3,1.3,0.5,2,0.7
			c0.8,0.3,1.6,0.6,2.4,0.8c0.7,0.2,1.4,0.4,2,0.6c0.8,0.2,1.6,0.5,2.4,0.7c0.7,0.2,1.4,0.4,2.1,0.5c0.8,0.2,1.6,0.4,2.4,0.6
			c0.7,0.2,1.4,0.3,2.2,0.5c0.8,0.2,1.6,0.3,2.4,0.5c0.7,0.1,1.5,0.3,2.2,0.4c0.8,0.1,1.6,0.3,2.4,0.4c0.7,0.1,1.5,0.2,2.2,0.3
			c0.8,0.1,1.6,0.2,2.4,0.3c0.8,0.1,1.5,0.2,2.3,0.3c0.8,0.1,1.5,0.1,2.3,0.2s1.6,0.1,2.4,0.2c0.7,0.1,1.4,0.1,2.2,0.1
			c0.9,0.1,1.7,0.1,2.6,0.2c0.5,0,1,0,1.5,0.1c4.1,0.2,8.3,0.3,12.5,0.3l0,0c1.9,0,3.7,0,5.6,0c1.7,0,3.4,0,5.1,0v-1.5l-29.4-30.7
			l-2.8-2.9l-3.8-4l5.2-5l3.8,4l2.8,2.9L175,283v-16.9v-1.9l-31.7-47.5l3.3-6.6l-8.2-1.6l-6.6-7.7H67.6V252
			C73.4,260.8,82.6,270.8,94.3,278.6z"/>
		<path fill="#FFFFFF" d="M212.1,214l1.7,8.4L197,241.3l5.2,0.7c0.7-2,2.6-3.3,4.8-3c0,0,7-0.3,11.2-2c0.2-1.4,1.5-2.4,2.9-2.2h0.1
			h0.1c1.4,0.2,2.4,1.5,2.3,2.9c3.7,2.6,10.4,4.6,10.4,4.6c2.2,0.3,3.9,2.1,4,4.3l5.9,0.7c7,0.9,12.1,7.4,11.2,14.4l-5.3,42.4
			c3.8,0,7.3,0,10.4-0.1c18-0.5,25.5-3,38.5-17.5V231l0,0v-18l0,0v-12.2h-62.5L222.4,214L212.1,214L212.1,214z"/>
		<path fill="#FFFFFF" d="M298.4,435.7L298.4,435.7c13.5,0,21.6,0,21.6,0l-21.6-32.5l0,0v-92.3c-11.6,8.6-22.4,10.5-37.6,11
			c-4.1,0.1-8.6,0.1-13.5,0.1l-1.4,11.4c-0.9,7-7.4,12.1-14.4,11.2l-48.6-6.1c-2.3-0.3-4.3-1.2-6.1-2.4v67.2v32.5
			c33.1,0,66.6,0,92.9,0l0,0h28.7V435.7z M190.2,389.8c-2.5,0-4.5-2-4.5-4.5s2-4.5,4.5-4.5s4.5,2,4.5,4.5
			C194.7,387.7,192.7,389.8,190.2,389.8z"/>
		<path fill="#FFFFFF" d="M174.9,403.3v-68.8c-2.5-2.7-3.8-6.4-3.3-10.4l1.4-11c-0.4,0-0.9,0-1.3,0c-2.5,0-5,0-7.4,0
			c-1.6,0-3.3,0-4.9-0.1c-0.1,0-0.2,0-0.3,0c-1.6,0-3.2-0.1-4.8-0.1c-0.1,0-0.2,0-0.4,0c-1.6-0.1-3.2-0.1-4.8-0.2
			c-0.1,0-0.2,0-0.3,0c-3.3-0.2-6.5-0.4-9.8-0.7c-0.1,0-0.2,0-0.2,0c-1.5-0.2-3.1-0.3-4.6-0.5c-0.2,0-0.4,0-0.6-0.1
			c-1.5-0.2-3-0.4-4.5-0.7c-0.2,0-0.4-0.1-0.7-0.1c-1.5-0.2-3-0.5-4.5-0.8c-0.2,0-0.4-0.1-0.6-0.1c-1.5-0.3-3-0.6-4.5-1
			c-0.1,0-0.3-0.1-0.4-0.1c-1.6-0.4-3.1-0.8-4.7-1.3l0,0c-1.6-0.5-3.1-0.9-4.7-1.5c-0.1,0-0.3-0.1-0.4-0.1c-1.5-0.5-3-1.1-4.4-1.6
			c-0.2-0.1-0.4-0.2-0.7-0.3c-1.4-0.6-2.9-1.2-4.3-1.8c-0.2-0.1-0.5-0.2-0.7-0.3c-1.4-0.7-2.8-1.3-4.3-2.1c-0.2-0.1-0.4-0.2-0.7-0.4
			c-1.4-0.8-2.9-1.6-4.3-2.4c-0.2-0.1-0.3-0.2-0.5-0.3c-1.5-0.9-3-1.8-4.5-2.8c-5.8-3.8-11.4-8.5-16.6-13.6v123.3l0,0
			c0,0,0,32.5-21.6,32.5c2.8,0,10.5,0,21.6,0l0,0h28.9l0,0c22.6,0,50.3,0,78.4,0v-9.8V403.3z"/>
		<path fill="#FFFFFF" d="M85.3,292.1c1.4,0.9,2.8,1.8,4.4,2.8l0.2,0.1l0.2,0.1c1.3,0.8,2.7,1.6,4.3,2.4l0.3,0.1l0.4,0.2
			c1.3,0.7,2.8,1.4,4.2,2l0.7,0.3c1.4,0.6,2.8,1.2,4.2,1.8l0.4,0.2l0.2,0.1c1.5,0.6,3,1.1,4.4,1.6l0.2,0.1l0.2,0.1
			c1.6,0.5,3.1,1,4.6,1.4c1.4,0.4,3,0.8,4.6,1.2l0.2,0.1l0.2,0.1c1.4,0.3,2.9,0.7,4.5,1h0.2l0.4,0.1c1.4,0.3,2.9,0.6,4.4,0.8
			l0.7,0.1c1.5,0.2,3,0.5,4.4,0.7h0.3h0.2c1.6,0.2,3.1,0.4,4.6,0.5h0.1h0.1c3.1,0.3,6.3,0.6,9.7,0.7h0.1h0.1
			c1.6,0.1,3.2,0.2,4.7,0.2h0.2h0.2c1.6,0.1,3.2,0.1,4.7,0.1h0.3c1,0,2,0,3,0.1v-14.4c-3.9-0.1-7.4-0.2-10.8-0.3h-0.6
			c-0.3,0-0.6,0-0.9,0c-0.7,0-1.3-0.1-1.9-0.1h-0.7h-0.6c-0.5,0-1.1-0.1-1.6-0.1c-0.6,0-1.2-0.1-1.8-0.2l-0.6-0.1h-0.4
			c-0.6-0.1-1.3-0.1-1.9-0.2c-0.6-0.1-1.3-0.1-1.9-0.2l-0.4-0.1c-0.8-0.1-1.6-0.2-2.4-0.3c-0.7-0.1-1.4-0.2-2.1-0.3h-0.2
			c-0.8-0.1-1.6-0.2-2.4-0.4c-0.7-0.1-1.5-0.3-2.2-0.4c-0.8-0.1-1.6-0.3-2.4-0.5c-0.7-0.2-1.5-0.3-2.2-0.5c-0.8-0.2-1.6-0.4-2.4-0.6
			c-0.7-0.2-1.4-0.4-2.1-0.6c-0.8-0.2-1.6-0.5-2.5-0.7c-0.7-0.2-1.4-0.4-2.1-0.6c-0.8-0.3-1.7-0.6-2.5-0.9l-0.3-0.1
			c-0.6-0.2-1.2-0.4-1.8-0.6c-0.8-0.3-1.7-0.7-2.5-1l-0.5-0.2c-0.5-0.2-1-0.4-1.4-0.6c-0.8-0.4-1.6-0.7-2.4-1.1l-0.2-0.1l-0.6-0.3
			c-0.4-0.2-0.8-0.4-1.2-0.6c-0.9-0.5-1.9-1-2.8-1.5l-0.1-0.1c-0.2-0.1-0.4-0.2-0.5-0.3c-0.3-0.2-0.6-0.3-0.9-0.5
			c-1.5-0.9-2.9-1.8-4.3-2.7c-14.5-9.7-23.2-21.2-27.1-27.2l-0.1-0.2c-5.5-8.6-8-15.9-6.7-20.1c0.6-1.9,2.8-3,6.5-3.3v-14.4
			c-14.8,0.7-19.1,9.6-20.3,13.5c-3.9,12.9,5.3,32.6,23.3,50.3C74.1,283.8,79.6,288.3,85.3,292.1z"/>
		<path fill="#FFFFFF" d="M314.8,292.4c14.8-17.5,20.1-43.5,12.2-60.4c-4.9-10.6-14.4-16.7-26.8-17.3v14.5
			c6.6,0.4,11.1,3.4,13.7,8.9c5.5,11.8,0.9,31.9-10.2,45c-1.3,1.5-2.6,3-4,4.5c-13.1,14.5-20.9,17.4-37.9,18l0.7,14.4
			c14.1-0.5,24-2.5,34.8-10.6C302.7,305.5,308.4,299.9,314.8,292.4z"/>
	</g>
	<path fill="#CCCCCC" d="M298.4,231L298.4,231c6.9,0,11.3,2.5,13.8,7.9c5.2,11.2,0.7,30.5-9.9,43.1c-1.4,1.6-2.7,3.1-3.9,4.5
		c-13,14.4-20.4,17-38.5,17.5l0,0l0.8,18l0,0c15.3-0.4,26-2.3,37.6-11c5.5-4.1,11.2-9.7,17.7-17.4c15.2-18,20.6-44.8,12.5-62.3
		c-5.5-11.8-16.2-18.4-30.2-18.4l0,0V231H298.4z M262.5,320.1l-0.7-14.4c17-0.6,24.8-3.5,37.9-18c1.4-1.6,2.7-3.1,4-4.5
		c11.1-13.1,15.6-33.2,10.2-45c-2.6-5.5-7-8.5-13.7-8.9v-14.4c12.4,0.5,21.8,6.6,26.8,17.3c7.8,16.9,2.6,42.9-12.2,60.4
		c-6.4,7.5-12,13.1-17.4,17.1C286.5,317.6,276.6,319.5,262.5,320.1z"/>
	<g id="skin">
		<path fill="#F1C27D" d="M287.6,481c2.8,1.3,6.6,2.7,10.9,4.2v-49.5l0,0h-28.9l0,0v45.4C270.2,480.8,277.6,476.5,287.6,481z"/>
		<path fill="#F1C27D" d="M67.6,435.7L67.6,435.7V485c4.1-1.5,7.7-2.8,10.4-4.1c10.2-4.6,17.7,0,18,0.1l0.4,0.1v-45.5l0,0H67.6
			V435.7z"/>
		<path fill="#F1C27D" d="M153.1,200.7h0.9h1l0,0l21,61.1l4.4-7.7l0.2-1.9c0.5-4.1,3-7.6,6.3-9.5l24.1-42l0,0h0.9h1.2h20.2h2.6h62.5
			v-17.4c-7.1-0.3-13-3.8-15.3-13.6c-7.2-30.7,27-115.4,1.8-108.2c-113.6,14.4-16.2,61.3-16.2,61.3c-13.6,0.3-24.7-1-33.6-3.5
			l5.7,9.8h-16.2L231,118c-42.8-14.4-30.7-56.5-30.7-56.5s-48.7-7.2-119,43.3c-4,2.9-7.8,5.4-11.5,7.5c-0.7,0.4-1.4,0.8-2,1.2v54.6
			v32.6h64.1h2.5L153.1,200.7L153.1,200.7z M152,155.9c0.7-0.7,1.8-0.7,2.5,0c0.2,0.2,14.5,13.3,55.9-0.4c1-0.3,2,0.2,2.3,1.1
			c0.3,0.9-0.2,2-1.1,2.3c-14.6,4.9-26.1,6.5-34.8,6.5c-17.5,0-24.3-6.5-24.7-7C151.3,157.7,151.3,156.6,152,155.9z M125.3,129.2
			l8.1-14.1l8.1,14.1H125.3z"/>
		<path fill="#F1C27D" d="M175.2,295.1c-0.1,0-0.2,0-0.3,0c-1.7,0-3.4,0-5.1,0c-1.9,0-3.8,0-5.6,0l0,0v18c2.5,0,5,0,7.4,0
			c0.4,0,0.9,0,1.3,0l2-15.5L175.2,295.1z"/>
		<path fill="#F1C27D" d="M260,303.9L260,303.9c-3.1,0.1-6.6,0.1-10.4,0.1l-2.3,18c4.9,0,9.4,0,13.5-0.1l0,0L260,303.9z"/>
	</g>
	<path fill="#7F7F7F" d="M233.9,242.1c0,0-6.7-2-10.4-4.6c0.1-1.4-0.9-2.6-2.3-2.9h-0.1H221c-1.4-0.1-2.6,0.9-2.9,2.2
		c-4.2,1.7-11.2,2-11.2,2c-2.1-0.3-4.1,1-4.8,3l35.6,4.5C237.7,244.2,236.1,242.4,233.9,242.1z M220.8,239.1c-1,0-1.8-0.8-1.8-1.8
		s0.8-1.8,1.8-1.8s1.8,0.8,1.8,1.8C222.6,238.3,221.8,239.1,220.8,239.1z"/>
	<path fill="#C68642" d="M254.9,261.6c0.9-7-4.1-13.5-11.2-14.4l-5.9-0.7l-35.6-4.5l-5.2-0.7l-2-0.2c-0.1,0-0.1,0-0.2,0
		c-1.8-0.2-3.5,0-5.1,0.5c-0.5,0.1-0.9,0.3-1.4,0.5s-0.9,0.4-1.4,0.7c-3.4,2-5.8,5.4-6.3,9.5l-0.2,1.9l-0.3,2.3l-0.6,4.7l-2.8,22.2
		l-0.2,1.6l-0.7,5.6l-0.5,3.6l-0.1,1l-0.3,2.5l-2,15.5l-1.4,11c-0.5,3.9,0.8,7.7,3.3,10.4c0.3,0.3,0.6,0.6,0.9,0.9
		c0.3,0.3,0.6,0.5,0.9,0.7c1.7,1.3,3.8,2.2,6.1,2.4l48.6,6.1c7,0.9,13.5-4.1,14.4-11.2l1.4-11.4l2.3-18L254.9,261.6z"/>
	<g id="pencil">
		
			<rect x="139.9" y="252.9" transform="matrix(0.722 -0.6919 0.6919 0.722 -136.955 170.3516)" fill="#E7B9B1" width="7.2" height="5.5"/>
		<polygon fill="#F9B34D" points="175.8,290.5 176.5,284.9 175.8,284.2 174.9,283.2 150.7,258 145.5,263 174.9,293.6 175.4,294.1 		
			"/>
		
			<rect x="143.2" y="257" transform="matrix(0.722 -0.6919 0.6919 0.722 -138.4147 173.5969)" fill="#7F7F7F" width="7.2" height="4"/>
	</g>
</g>
</svg>
