<?xml version="1.0" encoding="utf-8"?>
<!-- Generator: Adobe Illustrator 21.0.2, SVG Export Plug-In . SVG Version: 6.00 Build 0)  -->
<svg version="1.2" baseProfile="tiny" id="sleeping-man" xmlns="http://www.w3.org/2000/svg" xmlns:xlink="http://www.w3.org/1999/xlink"
	 x="0px" y="0px" viewBox="0 0 449.1 58" overflow="scroll" xml:space="preserve">
<g>
	<path fill="#334982" d="M23,26.6c0.1,0.2,0.6,1.1,1.1,2.5h-2.7c0.3,0.5,2.7,3.4,3.4,10.2c0.1,1.3,0.2,2.7,0.2,4.3
		c0,2.4-1.6,6.5-3.5,9.7c-0.5,0.8-1,1.6-1.4,2.2C19,57,18,58,17.3,58h49.5v-2.5V29.1v-2.5H23z"/>
	<path d="M24.8,39.3c-0.7-6.7-3.1-9.7-3.4-10.2h2.7c-0.5-1.4-1-2.3-1.1-2.5H1.6v2.5H0V58h2.8c4,0,10,0,14.5,0c0.7,0,1.7-1,2.8-2.5
		c0.5-0.7,1-1.4,1.4-2.2c1.9-3.2,3.5-7.3,3.5-9.7C25,42,24.9,40.5,24.8,39.3z"/>
	<path fill="#A54242" d="M66.8,19v7.6v2.5v26.4V58h131.1v-7.4v-26c0-2.1,0.2-3.9,0.4-5.7H66.8z"/>
	<path d="M339.8,32.6c1.7,0,3.1-6.1,3.1-13.6h-6.2C336.7,26.5,338,32.6,339.8,32.6z"/>
	<polygon points="380.8,36.6 374.4,32.9 380.8,28.5 380.3,27.7 372.6,33 380.3,37.5 	"/>
	<path fill="#F1C27D" d="M212.9,1c-4,1.1-12.6,5.2-14.6,18.1c-0.3,1.7-0.4,3.6-0.4,5.7v26V58l0,0h18l0,0v-7.1V24.8
		c0-1.4,0.2-4.3,1.1-5.8c0.3-0.4,0.6-0.7,1-0.8c1.7-0.5,4.1-0.2,7.1,0.8h33.4C243.6,5.7,226.1-3,212.9,1z"/>
	<path fill="#352114" d="M448.3,40.6c-3-3.5-6.8-19.1-6.8-21.6s5.8-3.4,5.8-3.4s-5.6,0.8-8.3,2.4c-0.8,0.5-3.9,0.8-7.9,0.9
		c-8.8,0.3-21.7,0-23.5,0c0,0,0.2,10.5-4.8,12.8s-3.3,6.4-6.1,6.7s-12.4,0-12.4,0V42c0,0,22.9-2,22.9,2.4S403.9,58,393.6,58h47.9
		h3.6C445.1,58,451.3,44.1,448.3,40.6z"/>
	<path fill="#F1C27D" d="M384.3,42v-3.5c0,0,9.5,0.4,12.4,0s1.1-4.5,6.1-6.7s4.8-12.8,4.8-12.8h-64.8c0,7.5-1.4,13.6-3.1,13.6
		s-3.1-6.1-3.1-13.6h-34.9v39h91.9c10.3,0,13.6-9.3,13.6-13.6S384.3,42,384.3,42z M380.3,27.7l0.6,0.8l-6.4,4.4l6.4,3.7l-0.5,0.9
		l-7.7-4.5L380.3,27.7z"/>
</g>
<path fill="#A54242" d="M258.5,19h-33.4H217c-1,1.5-1.1,4.4-1.1,5.8v26.1V58h34.8h2.1h18.3h2h28.6V19H258.5z"/>
</svg>
